<?xml version="1.0" encoding="utf-8"?>
<svg xmlns="http://www.w3.org/2000/svg" xmlns:xlink="http://www.w3.org/1999/xlink" style="margin: auto; background: none; display: block; shape-rendering: auto;" width="313px" height="313px" viewBox="0 0 100 100" preserveAspectRatio="xMidYMid">
<g transform="rotate(0 50 50)">
  <rect x="47" y="24" rx="3" ry="6" width="6" height="12" fill="#93dbe9">
    <animate attributeName="opacity" values="1;0" keyTimes="0;1" dur="2.8571428571428568s" begin="-2.619047619047619s" repeatCount="indefinite"></animate>
  </rect>
</g><g transform="rotate(30 50 50)">
  <rect x="47" y="24" rx="3" ry="6" width="6" height="12" fill="#689cc5">
    <animate attributeName="opacity" values="1;0" keyTimes="0;1" dur="2.8571428571428568s" begin="-2.380952380952381s" repeatCount="indefinite"></animate>
  </rect>
</g><g transform="rotate(60 50 50)">
  <rect x="47" y="24" rx="3" ry="6" width="6" height="12" fill="#5e6fa3">
    <animate attributeName="opacity" values="1;0" keyTimes="0;1" dur="2.8571428571428568s" begin="-2.142857142857143s" repeatCount="indefinite"></animate>
  </rect>
</g><g transform="rotate(90 50 50)">
  <rect x="47" y="24" rx="3" ry="6" width="6" height="12" fill="#3b4368">
    <animate attributeName="opacity" values="1;0" keyTimes="0;1" dur="2.8571428571428568s" begin="-1.9047619047619047s" repeatCount="indefinite"></animate>
  </rect>
</g><g transform="rotate(120 50 50)">
  <rect x="47" y="24" rx="3" ry="6" width="6" height="12" fill="#191d3a">
    <animate attributeName="opacity" values="1;0" keyTimes="0;1" dur="2.8571428571428568s" begin="-1.6666666666666665s" repeatCount="indefinite"></animate>
  </rect>
</g><g transform="rotate(150 50 50)">
  <rect x="47" y="24" rx="3" ry="6" width="6" height="12" fill="#d9dbee">
    <animate attributeName="opacity" values="1;0" keyTimes="0;1" dur="2.8571428571428568s" begin="-1.4285714285714286s" repeatCount="indefinite"></animate>
  </rect>
</g><g transform="rotate(180 50 50)">
  <rect x="47" y="24" rx="3" ry="6" width="6" height="12" fill="#b3b7e2">
    <animate attributeName="opacity" values="1;0" keyTimes="0;1" dur="2.8571428571428568s" begin="-1.1904761904761905s" repeatCount="indefinite"></animate>
  </rect>
</g><g transform="rotate(210 50 50)">
  <rect x="47" y="24" rx="3" ry="6" width="6" height="12" fill="#93dbe9">
    <animate attributeName="opacity" values="1;0" keyTimes="0;1" dur="2.8571428571428568s" begin="-0.9523809523809523s" repeatCount="indefinite"></animate>
  </rect>
</g><g transform="rotate(240 50 50)">
  <rect x="47" y="24" rx="3" ry="6" width="6" height="12" fill="#689cc5">
    <animate attributeName="opacity" values="1;0" keyTimes="0;1" dur="2.8571428571428568s" begin="-0.7142857142857143s" repeatCount="indefinite"></animate>
  </rect>
</g><g transform="rotate(270 50 50)">
  <rect x="47" y="24" rx="3" ry="6" width="6" height="12" fill="#5e6fa3">
    <animate attributeName="opacity" values="1;0" keyTimes="0;1" dur="2.8571428571428568s" begin="-0.47619047619047616s" repeatCount="indefinite"></animate>
  </rect>
</g><g transform="rotate(300 50 50)">
  <rect x="47" y="24" rx="3" ry="6" width="6" height="12" fill="#3b4368">
    <animate attributeName="opacity" values="1;0" keyTimes="0;1" dur="2.8571428571428568s" begin="-0.23809523809523808s" repeatCount="indefinite"></animate>
  </rect>
</g><g transform="rotate(330 50 50)">
  <rect x="47" y="24" rx="3" ry="6" width="6" height="12" fill="#191d3a">
    <animate attributeName="opacity" values="1;0" keyTimes="0;1" dur="2.8571428571428568s" begin="0s" repeatCount="indefinite"></animate>
  </rect>
</g>
<!-- [ldio] generated by https://loading.io/ --></svg>